<svg width="149" height="201" viewBox="0 0 149 201" fill="none" xmlns="http://www.w3.org/2000/svg">
<path d="M74.5 0L91.2263 47.6778H145.354L101.564 77.1443L118.29 124.822L74.5 95.3557L30.71 124.822L47.4363 77.1443L3.64629 47.6778H57.7737L74.5 0Z" fill="#D9D9D9"/>
<path d="M23.584 176.168C22.352 176.168 21.248 175.968 20.272 175.568C19.296 175.168 18.512 174.576 17.92 173.792C17.344 173.008 17.04 172.064 17.008 170.96H21.376C21.44 171.584 21.656 172.064 22.024 172.4C22.392 172.72 22.872 172.88 23.464 172.88C24.072 172.88 24.552 172.744 24.904 172.472C25.256 172.184 25.432 171.792 25.432 171.296C25.432 170.88 25.288 170.536 25 170.264C24.728 169.992 24.384 169.768 23.968 169.592C23.568 169.416 22.992 169.216 22.24 168.992C21.152 168.656 20.264 168.32 19.576 167.984C18.888 167.648 18.296 167.152 17.8 166.496C17.304 165.84 17.056 164.984 17.056 163.928C17.056 162.36 17.624 161.136 18.76 160.256C19.896 159.36 21.376 158.912 23.2 158.912C25.056 158.912 26.552 159.36 27.688 160.256C28.824 161.136 29.432 162.368 29.512 163.952H25.072C25.04 163.408 24.84 162.984 24.472 162.68C24.104 162.36 23.632 162.2 23.056 162.2C22.56 162.2 22.16 162.336 21.856 162.608C21.552 162.864 21.4 163.24 21.4 163.736C21.4 164.28 21.656 164.704 22.168 165.008C22.68 165.312 23.48 165.64 24.568 165.992C25.656 166.36 26.536 166.712 27.208 167.048C27.896 167.384 28.488 167.872 28.984 168.512C29.48 169.152 29.728 169.976 29.728 170.984C29.728 171.944 29.48 172.816 28.984 173.6C28.504 174.384 27.8 175.008 26.872 175.472C25.944 175.936 24.848 176.168 23.584 176.168ZM39.7176 172.52V176H37.6296C36.1416 176 34.9816 175.64 34.1496 174.92C33.3176 174.184 32.9016 172.992 32.9016 171.344V166.016H31.2696V162.608H32.9016V159.344H37.0056V162.608H39.6936V166.016H37.0056V171.392C37.0056 171.792 37.1016 172.08 37.2936 172.256C37.4856 172.432 37.8056 172.52 38.2536 172.52H39.7176ZM41.1876 169.28C41.1876 167.904 41.4436 166.696 41.9556 165.656C42.4836 164.616 43.1956 163.816 44.0916 163.256C44.9876 162.696 45.9876 162.416 47.0916 162.416C48.0356 162.416 48.8596 162.608 49.5636 162.992C50.2836 163.376 50.8356 163.88 51.2196 164.504V162.608H55.3236V176H51.2196V174.104C50.8196 174.728 50.2596 175.232 49.5396 175.616C48.8356 176 48.0116 176.192 47.0676 176.192C45.9796 176.192 44.9876 175.912 44.0916 175.352C43.1956 174.776 42.4836 173.968 41.9556 172.928C41.4436 171.872 41.1876 170.656 41.1876 169.28ZM51.2196 169.304C51.2196 168.28 50.9316 167.472 50.3556 166.88C49.7956 166.288 49.1076 165.992 48.2916 165.992C47.4756 165.992 46.7796 166.288 46.2036 166.88C45.6436 167.456 45.3636 168.256 45.3636 169.28C45.3636 170.304 45.6436 171.12 46.2036 171.728C46.7796 172.32 47.4756 172.616 48.2916 172.616C49.1076 172.616 49.7956 172.32 50.3556 171.728C50.9316 171.136 51.2196 170.328 51.2196 169.304ZM62.3967 164.84C62.8767 164.104 63.4767 163.528 64.1967 163.112C64.9167 162.68 65.7167 162.464 66.5967 162.464V166.808H65.4687C64.4447 166.808 63.6767 167.032 63.1647 167.48C62.6527 167.912 62.3967 168.68 62.3967 169.784V176H58.2927V162.608H62.3967V164.84ZM83.6303 176H79.5263L72.6623 165.608V176H68.5583V159.152H72.6623L79.5263 169.592V159.152H83.6303V176ZM99.2292 169.088C99.2292 169.472 99.2052 169.872 99.1572 170.288H89.8692C89.9332 171.12 90.1972 171.76 90.6612 172.208C91.1412 172.64 91.7252 172.856 92.4132 172.856C93.4372 172.856 94.1492 172.424 94.5492 171.56H98.9172C98.6932 172.44 98.2852 173.232 97.6932 173.936C97.1172 174.64 96.3892 175.192 95.5092 175.592C94.6292 175.992 93.6452 176.192 92.5572 176.192C91.2452 176.192 90.0772 175.912 89.0532 175.352C88.0292 174.792 87.2292 173.992 86.6532 172.952C86.0772 171.912 85.7892 170.696 85.7892 169.304C85.7892 167.912 86.0692 166.696 86.6292 165.656C87.2052 164.616 88.0052 163.816 89.0292 163.256C90.0532 162.696 91.2292 162.416 92.5572 162.416C93.8532 162.416 95.0052 162.688 96.0132 163.232C97.0212 163.776 97.8052 164.552 98.3652 165.56C98.9412 166.568 99.2292 167.744 99.2292 169.088ZM95.0292 168.008C95.0292 167.304 94.7892 166.744 94.3092 166.328C93.8292 165.912 93.2292 165.704 92.5092 165.704C91.8212 165.704 91.2372 165.904 90.7572 166.304C90.2932 166.704 90.0052 167.272 89.8932 168.008H95.0292ZM120.618 162.608L116.994 176H112.458L110.346 167.312L108.162 176H103.65L100.002 162.608H104.106L106.002 172.184L108.258 162.608H112.602L114.882 172.136L116.754 162.608H120.618ZM127.631 176.192C126.463 176.192 125.423 175.992 124.511 175.592C123.599 175.192 122.879 174.648 122.351 173.96C121.823 173.256 121.527 172.472 121.463 171.608H125.519C125.567 172.072 125.783 172.448 126.167 172.736C126.551 173.024 127.023 173.168 127.583 173.168C128.095 173.168 128.487 173.072 128.759 172.88C129.047 172.672 129.191 172.408 129.191 172.088C129.191 171.704 128.991 171.424 128.591 171.248C128.191 171.056 127.543 170.848 126.647 170.624C125.687 170.4 124.887 170.168 124.247 169.928C123.607 169.672 123.055 169.28 122.591 168.752C122.127 168.208 121.895 167.48 121.895 166.568C121.895 165.8 122.103 165.104 122.519 164.48C122.951 163.84 123.575 163.336 124.391 162.968C125.223 162.6 126.207 162.416 127.343 162.416C129.023 162.416 130.343 162.832 131.303 163.664C132.279 164.496 132.839 165.6 132.983 166.976H129.191C129.127 166.512 128.919 166.144 128.567 165.872C128.231 165.6 127.783 165.464 127.223 165.464C126.743 165.464 126.375 165.56 126.119 165.752C125.863 165.928 125.735 166.176 125.735 166.496C125.735 166.88 125.935 167.168 126.335 167.36C126.751 167.552 127.391 167.744 128.255 167.936C129.247 168.192 130.055 168.448 130.679 168.704C131.303 168.944 131.847 169.344 132.311 169.904C132.791 170.448 133.039 171.184 133.055 172.112C133.055 172.896 132.831 173.6 132.383 174.224C131.951 174.832 131.319 175.312 130.487 175.664C129.671 176.016 128.719 176.192 127.631 176.192Z" fill="black"/>
</svg>
